<?xml version="1.0" encoding="utf-8"?>
<!-- Generator: Adobe Illustrator 25.2.1, SVG Export Plug-In . SVG Version: 6.00 Build 0)  -->
<svg version="1.1" id="Capa_1" focusable="false" xmlns="http://www.w3.org/2000/svg" xmlns:xlink="http://www.w3.org/1999/xlink"
	 x="0px" y="0px" viewBox="0 0 1000 93" style="enable-background:new 0 0 1000 93;" xml:space="preserve">
<style type="text/css">
	.st0{fill:#FCFCFC;}
</style>
<path class="st0" d="M0,93L0,0l1000,0v93c-96.1-27.3-165-26.9-211-21c-31.2,4.1-62.7,4.8-94,2c-75.8-6.7-94.6-25.5-100-32
	c-14.8-17.6-17.2-39.3-25.2-40H569c-9.2,0.7-7.7,26.4-28,39c-13.1,8.1-27.7,6.2-29,6c-19.5-2.9-22.5-18.4-36-18
	c-15.5,0.5-16,21.1-35,27c-18.6,5.8-28.5-10.8-56-11c-17.8-0.1-27.7,6.7-43,13c-1.7,0.7-27.3,8.3-56,14.5c0,0-25.6,5.5-58,9.5
	C186.7,87.1,105.2,91.9,0,93z"/>
</svg>
